# xmcd CD database file
#
# Track frame offsets:
#	182
#	12312
#	23550
#	31372
#	48337
#	58737
#	77955
#	88960
#	104165
#	115972
#	126107
#	139472
#
# Disc length: 2044 seconds
#
# Revision: 1
# Processed by: cddbd v1.5.2PL0 Copyright (c) Steve Scherf et al.
# Submitted via: CDex 1.51
#
DISCID=aa07fa0c
DTITLE=Alceu Valença and Geraldo Azevedo - Quadrafônico
DYEAR=1972
DGENRE=MPB
TTITLE0=ME DÁ UM BEIJO
TTITLE1=VIRGEM VIRGÍNIA
TTITLE2=MISTER MISTÉRIO
TTITLE3=NOVENA
TTITLE4=CORDÃO DO RIO PRETO
TTITLE5=PLANETÁRIO
TTITLE6=SEIS HORAS
TTITLE7=EROSÃO
TTITLE8=78 ROTAÇÕES
TTITLE9=TALISMÃ
TTITLE10=CIRANDA DE MÃE NINA
TTITLE11=HORRÍVEL
EXTD=YEAR: 1972
EXTT0=
EXTT1=
EXTT2=
EXTT3=
EXTT4=
EXTT5=
EXTT6=
EXTT7=
EXTT8=
EXTT9=
EXTT10=
EXTT11=
PLAYORDER=
